<?xml version="1.0" encoding="utf-8"?>
<!-- Generator: Adobe Illustrator 19.2.1, SVG Export Plug-In . SVG Version: 6.00 Build 0)  -->
<svg version="1.1" id="Layer_1" xmlns="http://www.w3.org/2000/svg" xmlns:xlink="http://www.w3.org/1999/xlink" x="0px" y="0px"
	 viewBox="0 0 100 125" style="enable-background:new 0 0 100 125;" xml:space="preserve">
<style type="text/css">
	.st0{fill:#87A96B;}
</style>
<g>
	<circle class="st0" cx="59.8" cy="18.3" r="7"/>
	<path class="st0" d="M80.9,50.8c-3.1,0-6.1,0.8-8.7,2.1l-2.8-4.2v-6.2c1.6-0.1,2.9-1.4,2.9-3c0-1.7-1.4-3.1-3.1-3.1h-9.4l-5.3-11.5
		c-0.2-0.4-0.5-0.8-0.9-1.1c-0.1-0.1-0.2-0.2-0.3-0.3c-2.2-2-5.7-1.8-7.7,0.5L30,41.5c-1.8,2.1-1.8,5.1-0.1,7.2
		c0.2,0.3,0.4,0.6,0.7,0.9l-2.5,3.5c-2.7-1.5-5.8-2.3-9.1-2.3c-10.4,0-18.9,8.5-18.9,18.9S8.6,88.6,19,88.6
		c9.8,0,17.8-7.4,18.8-16.9h9.8v4c0,2.3,1.8,4.1,4.1,4.1s4.1-1.8,4.1-4.1V69l10.9-17l2.1,3.2c-4.2,3.5-6.9,8.7-6.9,14.6
		c0,10.4,8.5,18.9,18.9,18.9s18.9-8.5,18.9-18.9C99.9,59.3,91.4,50.8,80.9,50.8z M51.8,33.4l3.4,7.3c0.5,1.1,1.6,1.8,2.8,1.8h7.5
		v4.8H47l-5.6-2.1L51.8,33.4z M19.1,84.6c-8.2,0-14.9-6.7-14.9-14.9s6.7-14.9,14.9-14.9c2.4,0,4.7,0.6,6.7,1.6l-8.4,12.1
		c-0.4,0.6-0.5,1.4-0.1,2.1s1,1.1,1.8,1.1l0,0h14.7C32.8,79,26.6,84.6,19.1,84.6z M33.8,67.7H23l6.2-8.9
		C31.6,61.1,33.3,64.2,33.8,67.7z M37.9,67.7c-0.5-4.9-2.9-9.2-6.4-12.2l2.9-4.2h0.1l13.2,4.9v11.5H37.9z M55.9,61.4v-8.1
		c0-0.7-0.2-1.4-0.6-2h7L55.9,61.4z M80.9,84.6c-8.2,0-14.9-6.7-14.9-14.9c0-4.4,2-8.4,5.1-11.2l8.1,12.3c0.4,0.6,1,0.9,1.7,0.9
		c0.4,0,0.8-0.1,1.1-0.3c0.9-0.6,1.2-1.9,0.6-2.8l-8.1-12.3c1.9-0.9,4.1-1.5,6.4-1.5c8.2,0,14.9,6.7,14.9,14.9
		C95.8,77.9,89.1,84.6,80.9,84.6z"/>
</g>
</svg>
