<?xml version="1.0" encoding="utf-8"?>
<!-- Generator: Adobe Illustrator 19.2.1, SVG Export Plug-In . SVG Version: 6.00 Build 0)  -->
<svg version="1.1" id="Layer_1" xmlns="http://www.w3.org/2000/svg" xmlns:xlink="http://www.w3.org/1999/xlink" x="0px" y="0px"
	 viewBox="0 0 100 125" style="enable-background:new 0 0 100 125;" xml:space="preserve">
<style type="text/css">
	.st0{fill:#87A96B;}
</style>
<g>
	<path class="st0" d="M92.3,83.2c0.4,0.2,0.5,0.7,0.3,1"/>
</g>
<path class="st0" d="M58.6,93.5c-2.2,0-4.2-1.5-4.7-3.8l-4.5-20.5L34.8,55.7c-1.9-1.8-2.1-4.8-0.3-6.8c1.8-1.9,4.8-2.1,6.8-0.3
	l16.8,15.5l5.1,23.5c0.6,2.6-1.1,5.1-3.7,5.7C59.3,93.4,58.9,93.5,58.6,93.5z"/>
<path class="st0" d="M42.2,60.7c-0.6,0-1.1-0.1-1.7-0.2c-3.9-0.9-6.2-4.8-5.3-8.7l5.2-21.2c0.9-3.9,4.8-6.2,8.7-5.3
	c3.9,0.9,6.2,4.8,5.3,8.7l-5.2,21.2C48.4,58.4,45.4,60.7,42.2,60.7z"/>
<path class="st0" d="M28.6,92.3c-0.4,0-0.8-0.1-1.2-0.2c-2.6-0.7-4.1-3.3-3.4-5.9l14.8-56.9c0.7-2.6,3.3-4.1,5.9-3.4
	c2.6,0.7,4.1,3.3,3.4,5.9L33.2,88.7C32.7,90.8,30.7,92.3,28.6,92.3z"/>
<circle class="st0" cx="51.2" cy="14.4" r="8.6"/>
<path class="st0" d="M41,23.5l-16.6,6.9l-5.3,19.3c-0.5,1.9,0.6,3.9,2.5,4.4c0.3,0.1,0.6,0.1,1,0.1c1.6,0,3-1.1,3.5-2.7l4.3-15.9
	l19.6-8c0.8-0.4,1.5-1,1.8-1.8L41,23.5z"/>
<path class="st0" d="M77.4,37.8H63.2l-8.5-11.4L45,24.3c0,0.7,0.2,1.4,0.7,2L59.6,45h17.8c2,0,3.6-1.6,3.6-3.6S79.4,37.8,77.4,37.8z
	"/>
</svg>
