<?xml version="1.0" encoding="utf-8"?>
<!-- Generator: Adobe Illustrator 19.2.1, SVG Export Plug-In . SVG Version: 6.00 Build 0)  -->
<svg version="1.1" id="Layer_1" xmlns="http://www.w3.org/2000/svg" xmlns:xlink="http://www.w3.org/1999/xlink" x="0px" y="0px"
	 viewBox="0 0 16 20" style="enable-background:new 0 0 16 20;" xml:space="preserve">
<style type="text/css">
	.st0{fill:#87A96B;}
</style>
<g>
	<path class="st0" d="M15,8.8l-2.5-0.6c-0.2,0-0.3-0.1-0.5-0.1l-1.4-2.3C10.2,5.4,9.6,5,9,5H4.5C4,5,3.3,5.4,3.1,5.9L2,8H1
		C0.4,8,0,8.4,0,9v2c0,0.6,0.4,1,1,1h0.5c0-1.4,1.1-2.5,2.5-2.5s2.5,1.1,2.5,2.5h3c0-1.4,1.1-2.5,2.5-2.5s2.5,1.1,2.5,2.5H15
		c0.6,0,1-0.4,1-1v-1C16,9.4,15.6,8.9,15,8.8z M7,8c0,0-2.6,0-2.9,0l0.8-1.7C5,6.2,5.3,6,5.5,6H7V8z M8,8V6h1c0.2,0,0.6,0.2,0.7,0.4
		l1,1.6H8z"/>
	<path class="st0" d="M4,10c-1.1,0-2,0.9-2,2s0.9,2,2,2s2-0.9,2-2S5.1,10,4,10z M4,13c-0.6,0-1-0.4-1-1s0.4-1,1-1s1,0.4,1,1
		S4.6,13,4,13z"/>
	<path class="st0" d="M12,10c-1.1,0-2,0.9-2,2s0.9,2,2,2s2-0.9,2-2S13.1,10,12,10z M12,13c-0.6,0-1-0.4-1-1s0.4-1,1-1s1,0.4,1,1
		S12.6,13,12,13z"/>
</g>
</svg>
